<?xml version="1.0"?>
<svg xmlns="http://www.w3.org/2000/svg" xmlns:xlink="http://www.w3.org/1999/xlink" version="1.1" id="Layer_1" x="0px" y="0px" viewBox="0 0 473.935 473.935" style="enable-background:new 0 0 473.935 473.935;" xml:space="preserve" width="512px" height="512px" class=""><g><circle style="fill:#65ab53;" cx="236.967" cy="236.967" r="236.967" data-original="#65ab53" class=""/><path style="fill:#ffffff" d="M388.529,138.053c0,0-13.343,31.592-24.022,52.056c-10.743,20.595-39.158,29.366-39.158,29.366  c-53.395-30.694-69.406-24.022-80.535-18.686c-5.336,2.567-7.484,2.799-8.288,6.05c-0.804-3.252-2.952-3.487-8.288-6.05  c-11.132-5.336-27.143-12.007-80.535,18.686c0,0-28.415-8.771-39.158-29.366c-10.679-20.464-24.022-52.056-24.022-52.056  s-6.234,56.954-6.234,71.637c0,14.683,10.683,135.707,40.048,155.284c29.366,19.577,60.153,35.139,118.349,35.139  s88.662-15.558,118.027-35.139c29.366-19.581,40.048-140.601,40.048-155.284C394.762,195.007,388.529,138.053,388.529,138.053z   M262.614,251.957c-23.738,0-34.058,0-52.179,0c-22.092,0-28.026-1.785-34.705-25.358c0,0,30.922-6.586,60.628-4.471l0.007,0.022  c0.052-0.007,0.101-0.007,0.161-0.015c0.052,0.007,0.109,0.007,0.161,0.015l0.007-0.022c29.706-2.11,60.628,4.471,60.628,4.471  C290.643,250.176,280.63,251.957,262.614,251.957z" data-original="#333333" class="active-path" data-old_color="#151515"/></g> </svg>
